{
	"asset":{
		"generator":"Khronos glTF Blender I/O v4.0.44",
		"version":"2.0"
	},
	"scene":0,
	"scenes":[
		{
			"name":"Scene",
			"nodes":[
				0,
				1,
				2,
				3,
				4,
				5,
				6,
				7,
				8,
				9,
				10,
				11,
				12,
				13,
				14,
				15,
				16,
				17,
				18,
				19
			]
		}
	],
	"nodes":[
		{
			"mesh":0,
			"name":"Plane"
		},
		{
			"mesh":1,
			"name":"Cube",
			"translation":[
				23.676830291748047,
				4.012144088745117,
				-33.82099533081055
			]
		},
		{
			"mesh":2,
			"name":"Cube.001",
			"translation":[
				24.117229461669922,
				3.130763053894043,
				-37.117244720458984
			]
		},
		{
			"mesh":3,
			"name":"Cube.002",
			"translation":[
				20.09316062927246,
				4.679898262023926,
				-35.57286834716797
			]
		},
		{
			"mesh":4,
			"name":"Cube.003",
			"translation":[
				-24.645153045654297,
				12.093382835388184,
				34.620689392089844
			]
		},
		{
			"mesh":5,
			"name":"Cube.004",
			"translation":[
				-24.402555465698242,
				11.818892478942871,
				37.42892074584961
			]
		},
		{
			"mesh":6,
			"name":"Cube.005",
			"translation":[
				-22.38348960876465,
				9.72516918182373,
				35.94551467895508
			]
		},
		{
			"mesh":7,
			"name":"Cube.006",
			"translation":[
				-24.463151931762695,
				11.257120132446289,
				31.617685317993164
			]
		},
		{
			"mesh":8,
			"name":"Cube.007",
			"translation":[
				-20.763282775878906,
				10.299556732177734,
				33.1600341796875
			]
		},
		{
			"mesh":9,
			"name":"Cube.008",
			"translation":[
				60.689842224121094,
				4.30657958984375,
				59.16142654418945
			]
		},
		{
			"mesh":10,
			"name":"Cube.009",
			"translation":[
				60.600929260253906,
				2.274353265762329,
				56.701271057128906
			]
		},
		{
			"mesh":11,
			"name":"Cube.010",
			"translation":[
				63.14933395385742,
				2.0813634395599365,
				57.77461242675781
			]
		},
		{
			"mesh":12,
			"name":"Cube.011",
			"translation":[
				58.1309700012207,
				5.339509963989258,
				58.771339416503906
			]
		},
		{
			"mesh":13,
			"name":"Cube.012",
			"translation":[
				-28.848812103271484,
				19.67140769958496,
				-15.374052047729492
			]
		},
		{
			"mesh":14,
			"name":"Cube.013",
			"translation":[
				-3.760190486907959,
				28.22588539123535,
				99.71863555908203
			]
		},
		{
			"mesh":15,
			"name":"Cube.014",
			"translation":[
				-26.31668472290039,
				17.303194046020508,
				-16.0512638092041
			]
		},
		{
			"mesh":16,
			"name":"Cube.015",
			"translation":[
				-30.856651306152344,
				18.83514404296875,
				-17.61452865600586
			]
		},
		{
			"mesh":17,
			"name":"Cube.016",
			"translation":[
				-27.158798217773438,
				17.877580642700195,
				-19.161701202392578
			]
		},
		{
			"mesh":18,
			"name":"Cube.017",
			"translation":[
				-1.5371203422546387,
				24.927227020263672,
				100.10123443603516
			]
		},
		{
			"mesh":19,
			"name":"Cube.018",
			"translation":[
				-5.029735088348389,
				26.211872100830078,
				96.7818832397461
			]
		}
	],
	"materials":[
		{
			"doubleSided":true,
			"name":"Material.001",
			"pbrMetallicRoughness":{
				"baseColorFactor":[
					0.800000011920929,
					0.800000011920929,
					0.800000011920929,
					1
				],
				"metallicFactor":0,
				"roughnessFactor":0.5
			}
		}
	],
	"meshes":[
		{
			"name":"Plane",
			"primitives":[
				{
					"attributes":{
						"POSITION":0,
						"NORMAL":1,
						"TEXCOORD_0":2
					},
					"indices":3,
					"material":0
				}
			]
		},
		{
			"name":"Cube.008",
			"primitives":[
				{
					"attributes":{
						"POSITION":4,
						"NORMAL":5,
						"TEXCOORD_0":6
					},
					"indices":7
				}
			]
		},
		{
			"name":"Cube.009",
			"primitives":[
				{
					"attributes":{
						"POSITION":8,
						"NORMAL":9,
						"TEXCOORD_0":10
					},
					"indices":7
				}
			]
		},
		{
			"name":"Cube.010",
			"primitives":[
				{
					"attributes":{
						"POSITION":11,
						"NORMAL":12,
						"TEXCOORD_0":13
					},
					"indices":14
				}
			]
		},
		{
			"name":"Cube.011",
			"primitives":[
				{
					"attributes":{
						"POSITION":15,
						"NORMAL":16,
						"TEXCOORD_0":17
					},
					"indices":7
				}
			]
		},
		{
			"name":"Cube.012",
			"primitives":[
				{
					"attributes":{
						"POSITION":18,
						"NORMAL":19,
						"TEXCOORD_0":20
					},
					"indices":7
				}
			]
		},
		{
			"name":"Cube.013",
			"primitives":[
				{
					"attributes":{
						"POSITION":21,
						"NORMAL":22,
						"TEXCOORD_0":23
					},
					"indices":7
				}
			]
		},
		{
			"name":"Cube.014",
			"primitives":[
				{
					"attributes":{
						"POSITION":24,
						"NORMAL":25,
						"TEXCOORD_0":26
					},
					"indices":7
				}
			]
		},
		{
			"name":"Cube.015",
			"primitives":[
				{
					"attributes":{
						"POSITION":27,
						"NORMAL":28,
						"TEXCOORD_0":29
					},
					"indices":7
				}
			]
		},
		{
			"name":"Cube.016",
			"primitives":[
				{
					"attributes":{
						"POSITION":30,
						"NORMAL":31,
						"TEXCOORD_0":32
					},
					"indices":7
				}
			]
		},
		{
			"name":"Cube.017",
			"primitives":[
				{
					"attributes":{
						"POSITION":33,
						"NORMAL":34,
						"TEXCOORD_0":35
					},
					"indices":7
				}
			]
		},
		{
			"name":"Cube.018",
			"primitives":[
				{
					"attributes":{
						"POSITION":36,
						"NORMAL":37,
						"TEXCOORD_0":38
					},
					"indices":7
				}
			]
		},
		{
			"name":"Cube.020",
			"primitives":[
				{
					"attributes":{
						"POSITION":39,
						"NORMAL":40,
						"TEXCOORD_0":41
					},
					"indices":7
				}
			]
		},
		{
			"name":"Cube.021",
			"primitives":[
				{
					"attributes":{
						"POSITION":42,
						"NORMAL":43,
						"TEXCOORD_0":44
					},
					"indices":45
				}
			]
		},
		{
			"name":"Cube.026",
			"primitives":[
				{
					"attributes":{
						"POSITION":46,
						"NORMAL":47,
						"TEXCOORD_0":48
					},
					"indices":49
				}
			]
		},
		{
			"name":"Cube.023",
			"primitives":[
				{
					"attributes":{
						"POSITION":50,
						"NORMAL":51,
						"TEXCOORD_0":52
					},
					"indices":45
				}
			]
		},
		{
			"name":"Cube.024",
			"primitives":[
				{
					"attributes":{
						"POSITION":53,
						"NORMAL":54,
						"TEXCOORD_0":55
					},
					"indices":45
				}
			]
		},
		{
			"name":"Cube.025",
			"primitives":[
				{
					"attributes":{
						"POSITION":56,
						"NORMAL":57,
						"TEXCOORD_0":58
					},
					"indices":45
				}
			]
		},
		{
			"name":"Cube.027",
			"primitives":[
				{
					"attributes":{
						"POSITION":59,
						"NORMAL":60,
						"TEXCOORD_0":61
					},
					"indices":49
				}
			]
		},
		{
			"name":"Cube.028",
			"primitives":[
				{
					"attributes":{
						"POSITION":62,
						"NORMAL":63,
						"TEXCOORD_0":64
					},
					"indices":65
				}
			]
		}
	],
	"accessors":[
		{
			"bufferView":0,
			"componentType":5126,
			"count":70558,
			"max":[
				232.5939178466797,
				48.24489212036133,
				230.3512725830078
			],
			"min":[
				-123.40216064453125,
				-10.997186660766602,
				-120.54655456542969
			],
			"type":"VEC3"
		},
		{
			"bufferView":1,
			"componentType":5126,
			"count":70558,
			"type":"VEC3"
		},
		{
			"bufferView":2,
			"componentType":5126,
			"count":70558,
			"type":"VEC2"
		},
		{
			"bufferView":3,
			"componentType":5125,
			"count":393216,
			"type":"SCALAR"
		},
		{
			"bufferView":4,
			"componentType":5126,
			"count":24,
			"max":[
				1.2263453006744385,
				5.1432390213012695,
				1.2263453006744385
			],
			"min":[
				-1.2263453006744385,
				-5.1432390213012695,
				-1.2263453006744385
			],
			"type":"VEC3"
		},
		{
			"bufferView":5,
			"componentType":5126,
			"count":24,
			"type":"VEC3"
		},
		{
			"bufferView":6,
			"componentType":5126,
			"count":24,
			"type":"VEC2"
		},
		{
			"bufferView":7,
			"componentType":5123,
			"count":36,
			"type":"SCALAR"
		},
		{
			"bufferView":8,
			"componentType":5126,
			"count":24,
			"max":[
				1.2263453006744385,
				3.099241018295288,
				1.2263453006744385
			],
			"min":[
				-1.2263453006744385,
				-3.099241018295288,
				-1.2263453006744385
			],
			"type":"VEC3"
		},
		{
			"bufferView":9,
			"componentType":5126,
			"count":24,
			"type":"VEC3"
		},
		{
			"bufferView":10,
			"componentType":5126,
			"count":24,
			"type":"VEC2"
		},
		{
			"bufferView":11,
			"componentType":5126,
			"count":24,
			"max":[
				1.2263453006744385,
				6.050106048583984,
				1.2263453006744385
			],
			"min":[
				-1.2263453006744385,
				-6.050106048583984,
				-1.2263453006744385
			],
			"type":"VEC3"
		},
		{
			"bufferView":12,
			"componentType":5126,
			"count":24,
			"type":"VEC3"
		},
		{
			"bufferView":13,
			"componentType":5126,
			"count":24,
			"type":"VEC2"
		},
		{
			"bufferView":14,
			"componentType":5123,
			"count":36,
			"type":"SCALAR"
		},
		{
			"bufferView":15,
			"componentType":5126,
			"count":24,
			"max":[
				1.1277707815170288,
				4.729821681976318,
				1.1277707815170288
			],
			"min":[
				-1.1277707815170288,
				-4.729821681976318,
				-1.1277707815170288
			],
			"type":"VEC3"
		},
		{
			"bufferView":16,
			"componentType":5126,
			"count":24,
			"type":"VEC3"
		},
		{
			"bufferView":17,
			"componentType":5126,
			"count":24,
			"type":"VEC2"
		},
		{
			"bufferView":18,
			"componentType":5126,
			"count":24,
			"max":[
				0.8097897171974182,
				3.3962230682373047,
				0.8097897171974182
			],
			"min":[
				-0.8097897171974182,
				-3.3962230682373047,
				-0.8097897171974182
			],
			"type":"VEC3"
		},
		{
			"bufferView":19,
			"componentType":5126,
			"count":24,
			"type":"VEC3"
		},
		{
			"bufferView":20,
			"componentType":5126,
			"count":24,
			"type":"VEC2"
		},
		{
			"bufferView":21,
			"componentType":5126,
			"count":24,
			"max":[
				0.8097897171974182,
				3.3962230682373047,
				1.203578233718872
			],
			"min":[
				-0.8097897171974182,
				-3.3962230682373047,
				-1.203578233718872
			],
			"type":"VEC3"
		},
		{
			"bufferView":22,
			"componentType":5126,
			"count":24,
			"type":"VEC3"
		},
		{
			"bufferView":23,
			"componentType":5126,
			"count":24,
			"type":"VEC2"
		},
		{
			"bufferView":24,
			"componentType":5126,
			"count":24,
			"max":[
				1.5388927459716797,
				3.3962230682373047,
				1.208364486694336
			],
			"min":[
				-1.5388927459716797,
				-3.3962230682373047,
				-1.208364486694336
			],
			"type":"VEC3"
		},
		{
			"bufferView":25,
			"componentType":5126,
			"count":24,
			"type":"VEC3"
		},
		{
			"bufferView":26,
			"componentType":5126,
			"count":24,
			"type":"VEC2"
		},
		{
			"bufferView":27,
			"componentType":5126,
			"count":24,
			"max":[
				0.8097897171974182,
				3.3962230682373047,
				0.8097897171974182
			],
			"min":[
				-0.8097897171974182,
				-3.3962230682373047,
				-0.8097897171974182
			],
			"type":"VEC3"
		},
		{
			"bufferView":28,
			"componentType":5126,
			"count":24,
			"type":"VEC3"
		},
		{
			"bufferView":29,
			"componentType":5126,
			"count":24,
			"type":"VEC2"
		},
		{
			"bufferView":30,
			"componentType":5126,
			"count":24,
			"max":[
				0.9057233929634094,
				3.798564910888672,
				0.9057233929634094
			],
			"min":[
				-0.9057233929634094,
				-3.798564910888672,
				-0.9057233929634094
			],
			"type":"VEC3"
		},
		{
			"bufferView":31,
			"componentType":5126,
			"count":24,
			"type":"VEC3"
		},
		{
			"bufferView":32,
			"componentType":5126,
			"count":24,
			"type":"VEC2"
		},
		{
			"bufferView":33,
			"componentType":5126,
			"count":24,
			"max":[
				0.9057233929634094,
				3.798564910888672,
				0.9057233929634094
			],
			"min":[
				-0.9057233929634094,
				-3.798564910888672,
				-0.9057233929634094
			],
			"type":"VEC3"
		},
		{
			"bufferView":34,
			"componentType":5126,
			"count":24,
			"type":"VEC3"
		},
		{
			"bufferView":35,
			"componentType":5126,
			"count":24,
			"type":"VEC2"
		},
		{
			"bufferView":36,
			"componentType":5126,
			"count":24,
			"max":[
				0.9057233929634094,
				1.9358949661254883,
				0.7313929796218872
			],
			"min":[
				-0.9057233929634094,
				-1.9358949661254883,
				-0.7313929796218872
			],
			"type":"VEC3"
		},
		{
			"bufferView":37,
			"componentType":5126,
			"count":24,
			"type":"VEC3"
		},
		{
			"bufferView":38,
			"componentType":5126,
			"count":24,
			"type":"VEC2"
		},
		{
			"bufferView":39,
			"componentType":5126,
			"count":24,
			"max":[
				0.9057233929634094,
				7.495992183685303,
				0.9057233929634094
			],
			"min":[
				-0.9057233929634094,
				-7.495992183685303,
				-0.9057233929634094
			],
			"type":"VEC3"
		},
		{
			"bufferView":40,
			"componentType":5126,
			"count":24,
			"type":"VEC3"
		},
		{
			"bufferView":41,
			"componentType":5126,
			"count":24,
			"type":"VEC2"
		},
		{
			"bufferView":42,
			"componentType":5126,
			"count":24,
			"max":[
				1.5948817729949951,
				4.729821681976318,
				1.5948817729949951
			],
			"min":[
				-1.5948817729949951,
				-4.729821681976318,
				-1.5948817729949951
			],
			"type":"VEC3"
		},
		{
			"bufferView":43,
			"componentType":5126,
			"count":24,
			"type":"VEC3"
		},
		{
			"bufferView":44,
			"componentType":5126,
			"count":24,
			"type":"VEC2"
		},
		{
			"bufferView":45,
			"componentType":5123,
			"count":36,
			"type":"SCALAR"
		},
		{
			"bufferView":46,
			"componentType":5126,
			"count":24,
			"max":[
				1.7321264743804932,
				5.1432390213012695,
				1.7321264743804932
			],
			"min":[
				-1.7321264743804932,
				-5.1432390213012695,
				-1.7321264743804932
			],
			"type":"VEC3"
		},
		{
			"bufferView":47,
			"componentType":5126,
			"count":24,
			"type":"VEC3"
		},
		{
			"bufferView":48,
			"componentType":5126,
			"count":24,
			"type":"VEC2"
		},
		{
			"bufferView":49,
			"componentType":5123,
			"count":36,
			"type":"SCALAR"
		},
		{
			"bufferView":50,
			"componentType":5126,
			"count":24,
			"max":[
				1.425264596939087,
				3.3962230682373047,
				1.4220192432403564
			],
			"min":[
				-1.425264596939087,
				-3.3962230682373047,
				-1.4220192432403564
			],
			"type":"VEC3"
		},
		{
			"bufferView":51,
			"componentType":5126,
			"count":24,
			"type":"VEC3"
		},
		{
			"bufferView":52,
			"componentType":5126,
			"count":24,
			"type":"VEC2"
		},
		{
			"bufferView":53,
			"componentType":5126,
			"count":24,
			"max":[
				1.941209316253662,
				3.3962230682373047,
				1.9439332485198975
			],
			"min":[
				-1.941209316253662,
				-3.3962230682373047,
				-1.9439332485198975
			],
			"type":"VEC3"
		},
		{
			"bufferView":54,
			"componentType":5126,
			"count":24,
			"type":"VEC3"
		},
		{
			"bufferView":55,
			"componentType":5126,
			"count":24,
			"type":"VEC2"
		},
		{
			"bufferView":56,
			"componentType":5126,
			"count":24,
			"max":[
				1.1451961994171143,
				3.3962230682373047,
				1.1451961994171143
			],
			"min":[
				-1.1451961994171143,
				-3.3962230682373047,
				-1.1451961994171143
			],
			"type":"VEC3"
		},
		{
			"bufferView":57,
			"componentType":5126,
			"count":24,
			"type":"VEC3"
		},
		{
			"bufferView":58,
			"componentType":5126,
			"count":24,
			"type":"VEC2"
		},
		{
			"bufferView":59,
			"componentType":5126,
			"count":24,
			"max":[
				1.7321264743804932,
				3.099241018295288,
				1.7321264743804932
			],
			"min":[
				-1.7321264743804932,
				-3.099241018295288,
				-1.7321264743804932
			],
			"type":"VEC3"
		},
		{
			"bufferView":60,
			"componentType":5126,
			"count":24,
			"type":"VEC3"
		},
		{
			"bufferView":61,
			"componentType":5126,
			"count":24,
			"type":"VEC2"
		},
		{
			"bufferView":62,
			"componentType":5126,
			"count":24,
			"max":[
				1.7321264743804932,
				6.050106048583984,
				1.7321264743804932
			],
			"min":[
				-1.7321264743804932,
				-6.050106048583984,
				-1.7321264743804932
			],
			"type":"VEC3"
		},
		{
			"bufferView":63,
			"componentType":5126,
			"count":24,
			"type":"VEC3"
		},
		{
			"bufferView":64,
			"componentType":5126,
			"count":24,
			"type":"VEC2"
		},
		{
			"bufferView":65,
			"componentType":5123,
			"count":36,
			"type":"SCALAR"
		}
	],
	"bufferViews":[
		{
			"buffer":0,
			"byteLength":846696,
			"byteOffset":0,
			"target":34962
		},
		{
			"buffer":0,
			"byteLength":846696,
			"byteOffset":846696,
			"target":34962
		},
		{
			"buffer":0,
			"byteLength":564464,
			"byteOffset":1693392,
			"target":34962
		},
		{
			"buffer":0,
			"byteLength":1572864,
			"byteOffset":2257856,
			"target":34963
		},
		{
			"buffer":0,
			"byteLength":288,
			"byteOffset":3830720,
			"target":34962
		},
		{
			"buffer":0,
			"byteLength":288,
			"byteOffset":3831008,
			"target":34962
		},
		{
			"buffer":0,
			"byteLength":192,
			"byteOffset":3831296,
			"target":34962
		},
		{
			"buffer":0,
			"byteLength":72,
			"byteOffset":3831488,
			"target":34963
		},
		{
			"buffer":0,
			"byteLength":288,
			"byteOffset":3831560,
			"target":34962
		},
		{
			"buffer":0,
			"byteLength":288,
			"byteOffset":3831848,
			"target":34962
		},
		{
			"buffer":0,
			"byteLength":192,
			"byteOffset":3832136,
			"target":34962
		},
		{
			"buffer":0,
			"byteLength":288,
			"byteOffset":3832328,
			"target":34962
		},
		{
			"buffer":0,
			"byteLength":288,
			"byteOffset":3832616,
			"target":34962
		},
		{
			"buffer":0,
			"byteLength":192,
			"byteOffset":3832904,
			"target":34962
		},
		{
			"buffer":0,
			"byteLength":72,
			"byteOffset":3833096,
			"target":34963
		},
		{
			"buffer":0,
			"byteLength":288,
			"byteOffset":3833168,
			"target":34962
		},
		{
			"buffer":0,
			"byteLength":288,
			"byteOffset":3833456,
			"target":34962
		},
		{
			"buffer":0,
			"byteLength":192,
			"byteOffset":3833744,
			"target":34962
		},
		{
			"buffer":0,
			"byteLength":288,
			"byteOffset":3833936,
			"target":34962
		},
		{
			"buffer":0,
			"byteLength":288,
			"byteOffset":3834224,
			"target":34962
		},
		{
			"buffer":0,
			"byteLength":192,
			"byteOffset":3834512,
			"target":34962
		},
		{
			"buffer":0,
			"byteLength":288,
			"byteOffset":3834704,
			"target":34962
		},
		{
			"buffer":0,
			"byteLength":288,
			"byteOffset":3834992,
			"target":34962
		},
		{
			"buffer":0,
			"byteLength":192,
			"byteOffset":3835280,
			"target":34962
		},
		{
			"buffer":0,
			"byteLength":288,
			"byteOffset":3835472,
			"target":34962
		},
		{
			"buffer":0,
			"byteLength":288,
			"byteOffset":3835760,
			"target":34962
		},
		{
			"buffer":0,
			"byteLength":192,
			"byteOffset":3836048,
			"target":34962
		},
		{
			"buffer":0,
			"byteLength":288,
			"byteOffset":3836240,
			"target":34962
		},
		{
			"buffer":0,
			"byteLength":288,
			"byteOffset":3836528,
			"target":34962
		},
		{
			"buffer":0,
			"byteLength":192,
			"byteOffset":3836816,
			"target":34962
		},
		{
			"buffer":0,
			"byteLength":288,
			"byteOffset":3837008,
			"target":34962
		},
		{
			"buffer":0,
			"byteLength":288,
			"byteOffset":3837296,
			"target":34962
		},
		{
			"buffer":0,
			"byteLength":192,
			"byteOffset":3837584,
			"target":34962
		},
		{
			"buffer":0,
			"byteLength":288,
			"byteOffset":3837776,
			"target":34962
		},
		{
			"buffer":0,
			"byteLength":288,
			"byteOffset":3838064,
			"target":34962
		},
		{
			"buffer":0,
			"byteLength":192,
			"byteOffset":3838352,
			"target":34962
		},
		{
			"buffer":0,
			"byteLength":288,
			"byteOffset":3838544,
			"target":34962
		},
		{
			"buffer":0,
			"byteLength":288,
			"byteOffset":3838832,
			"target":34962
		},
		{
			"buffer":0,
			"byteLength":192,
			"byteOffset":3839120,
			"target":34962
		},
		{
			"buffer":0,
			"byteLength":288,
			"byteOffset":3839312,
			"target":34962
		},
		{
			"buffer":0,
			"byteLength":288,
			"byteOffset":3839600,
			"target":34962
		},
		{
			"buffer":0,
			"byteLength":192,
			"byteOffset":3839888,
			"target":34962
		},
		{
			"buffer":0,
			"byteLength":288,
			"byteOffset":3840080,
			"target":34962
		},
		{
			"buffer":0,
			"byteLength":288,
			"byteOffset":3840368,
			"target":34962
		},
		{
			"buffer":0,
			"byteLength":192,
			"byteOffset":3840656,
			"target":34962
		},
		{
			"buffer":0,
			"byteLength":72,
			"byteOffset":3840848,
			"target":34963
		},
		{
			"buffer":0,
			"byteLength":288,
			"byteOffset":3840920,
			"target":34962
		},
		{
			"buffer":0,
			"byteLength":288,
			"byteOffset":3841208,
			"target":34962
		},
		{
			"buffer":0,
			"byteLength":192,
			"byteOffset":3841496,
			"target":34962
		},
		{
			"buffer":0,
			"byteLength":72,
			"byteOffset":3841688,
			"target":34963
		},
		{
			"buffer":0,
			"byteLength":288,
			"byteOffset":3841760,
			"target":34962
		},
		{
			"buffer":0,
			"byteLength":288,
			"byteOffset":3842048,
			"target":34962
		},
		{
			"buffer":0,
			"byteLength":192,
			"byteOffset":3842336,
			"target":34962
		},
		{
			"buffer":0,
			"byteLength":288,
			"byteOffset":3842528,
			"target":34962
		},
		{
			"buffer":0,
			"byteLength":288,
			"byteOffset":3842816,
			"target":34962
		},
		{
			"buffer":0,
			"byteLength":192,
			"byteOffset":3843104,
			"target":34962
		},
		{
			"buffer":0,
			"byteLength":288,
			"byteOffset":3843296,
			"target":34962
		},
		{
			"buffer":0,
			"byteLength":288,
			"byteOffset":3843584,
			"target":34962
		},
		{
			"buffer":0,
			"byteLength":192,
			"byteOffset":3843872,
			"target":34962
		},
		{
			"buffer":0,
			"byteLength":288,
			"byteOffset":3844064,
			"target":34962
		},
		{
			"buffer":0,
			"byteLength":288,
			"byteOffset":3844352,
			"target":34962
		},
		{
			"buffer":0,
			"byteLength":192,
			"byteOffset":3844640,
			"target":34962
		},
		{
			"buffer":0,
			"byteLength":288,
			"byteOffset":3844832,
			"target":34962
		},
		{
			"buffer":0,
			"byteLength":288,
			"byteOffset":3845120,
			"target":34962
		},
		{
			"buffer":0,
			"byteLength":192,
			"byteOffset":3845408,
			"target":34962
		},
		{
			"buffer":0,
			"byteLength":72,
			"byteOffset":3845600,
			"target":34963
		}
	],
	"buffers":[
		{
			"byteLength":3845672,
			"uri":"landscape.bin"
		}
	]
}
